<mxfile host="app.diagrams.net" modified="2023-03-22T13:45:59.026Z" agent="5.0 (Windows NT 10.0; Win64; x64) AppleWebKit/537.36 (KHTML, like Gecko) Chrome/111.0.0.0 Safari/537.36" etag="UBoDmt0xkZCEhV59vRin" version="21.0.10" type="github">
  <diagram name="Page-1" id="2YBvvXClWsGukQMizWep">
    <mxGraphModel dx="1434" dy="764" grid="1" gridSize="10" guides="1" tooltips="1" connect="1" arrows="1" fold="1" page="1" pageScale="1.5" pageWidth="850" pageHeight="1100" math="0" shadow="0">
      <root>
        <mxCell id="0" />
        <mxCell id="1" parent="0" />
        <mxCell id="d_F_F2P5PRxiFKgZJ4JD-13" style="edgeStyle=orthogonalEdgeStyle;rounded=0;orthogonalLoop=1;jettySize=auto;html=1;exitX=0.5;exitY=1;exitDx=0;exitDy=0;" edge="1" parent="1" source="d_F_F2P5PRxiFKgZJ4JD-9" target="d_F_F2P5PRxiFKgZJ4JD-10">
          <mxGeometry relative="1" as="geometry" />
        </mxCell>
        <mxCell id="d_F_F2P5PRxiFKgZJ4JD-9" value="Start" style="rounded=1;whiteSpace=wrap;html=1;" vertex="1" parent="1">
          <mxGeometry x="330" y="10" width="120" height="60" as="geometry" />
        </mxCell>
        <mxCell id="d_F_F2P5PRxiFKgZJ4JD-16" style="edgeStyle=orthogonalEdgeStyle;rounded=0;orthogonalLoop=1;jettySize=auto;html=1;exitX=0.5;exitY=1;exitDx=0;exitDy=0;entryX=0.5;entryY=0;entryDx=0;entryDy=0;" edge="1" parent="1" source="d_F_F2P5PRxiFKgZJ4JD-10" target="d_F_F2P5PRxiFKgZJ4JD-15">
          <mxGeometry relative="1" as="geometry" />
        </mxCell>
        <mxCell id="d_F_F2P5PRxiFKgZJ4JD-10" value="ConfigService" style="rounded=1;whiteSpace=wrap;html=1;" vertex="1" parent="1">
          <mxGeometry x="330" y="110" width="120" height="60" as="geometry" />
        </mxCell>
        <mxCell id="d_F_F2P5PRxiFKgZJ4JD-14" value="isEnabled" style="text;html=1;strokeColor=none;fillColor=none;align=center;verticalAlign=middle;whiteSpace=wrap;rounded=0;" vertex="1" parent="1">
          <mxGeometry x="395" y="80" width="60" height="30" as="geometry" />
        </mxCell>
        <mxCell id="d_F_F2P5PRxiFKgZJ4JD-18" style="edgeStyle=orthogonalEdgeStyle;rounded=0;orthogonalLoop=1;jettySize=auto;html=1;exitX=1;exitY=0.5;exitDx=0;exitDy=0;" edge="1" parent="1" source="d_F_F2P5PRxiFKgZJ4JD-15" target="d_F_F2P5PRxiFKgZJ4JD-17">
          <mxGeometry relative="1" as="geometry" />
        </mxCell>
        <mxCell id="d_F_F2P5PRxiFKgZJ4JD-26" style="edgeStyle=orthogonalEdgeStyle;rounded=0;orthogonalLoop=1;jettySize=auto;html=1;exitX=0.5;exitY=1;exitDx=0;exitDy=0;" edge="1" parent="1" source="d_F_F2P5PRxiFKgZJ4JD-15" target="d_F_F2P5PRxiFKgZJ4JD-23">
          <mxGeometry relative="1" as="geometry" />
        </mxCell>
        <mxCell id="d_F_F2P5PRxiFKgZJ4JD-15" value="check&lt;br&gt;enabled" style="rhombus;whiteSpace=wrap;html=1;" vertex="1" parent="1">
          <mxGeometry x="350" y="220" width="80" height="80" as="geometry" />
        </mxCell>
        <mxCell id="d_F_F2P5PRxiFKgZJ4JD-17" value="Exit for this block" style="rounded=1;whiteSpace=wrap;html=1;" vertex="1" parent="1">
          <mxGeometry x="520" y="230" width="120" height="60" as="geometry" />
        </mxCell>
        <mxCell id="d_F_F2P5PRxiFKgZJ4JD-19" value="no" style="text;html=1;strokeColor=none;fillColor=none;align=center;verticalAlign=middle;whiteSpace=wrap;rounded=0;" vertex="1" parent="1">
          <mxGeometry x="440" y="230" width="60" height="30" as="geometry" />
        </mxCell>
        <mxCell id="d_F_F2P5PRxiFKgZJ4JD-31" style="edgeStyle=orthogonalEdgeStyle;rounded=0;orthogonalLoop=1;jettySize=auto;html=1;exitX=0.5;exitY=1;exitDx=0;exitDy=0;entryX=0.5;entryY=0;entryDx=0;entryDy=0;" edge="1" parent="1" source="d_F_F2P5PRxiFKgZJ4JD-23" target="d_F_F2P5PRxiFKgZJ4JD-27">
          <mxGeometry relative="1" as="geometry" />
        </mxCell>
        <mxCell id="d_F_F2P5PRxiFKgZJ4JD-23" value="&lt;div style=&quot;font-family: Consolas, &amp;quot;Courier New&amp;quot;, monospace; font-weight: normal; font-size: 14px; line-height: 19px;&quot;&gt;&lt;span style=&quot;background-color: rgb(255, 255, 255);&quot;&gt;getActiveTriggers&lt;/span&gt;&lt;/div&gt;" style="swimlane;whiteSpace=wrap;html=1;" vertex="1" parent="1">
          <mxGeometry x="290" y="340" width="200" height="200" as="geometry" />
        </mxCell>
        <mxCell id="d_F_F2P5PRxiFKgZJ4JD-24" value="Cache" style="rounded=1;whiteSpace=wrap;html=1;" vertex="1" parent="d_F_F2P5PRxiFKgZJ4JD-23">
          <mxGeometry x="10" y="30" width="120" height="60" as="geometry" />
        </mxCell>
        <mxCell id="d_F_F2P5PRxiFKgZJ4JD-25" value="Subgraph (fallback)" style="rounded=1;whiteSpace=wrap;html=1;" vertex="1" parent="d_F_F2P5PRxiFKgZJ4JD-23">
          <mxGeometry x="10" y="110" width="120" height="60" as="geometry" />
        </mxCell>
        <mxCell id="d_F_F2P5PRxiFKgZJ4JD-29" style="edgeStyle=orthogonalEdgeStyle;rounded=0;orthogonalLoop=1;jettySize=auto;html=1;exitX=1;exitY=0.5;exitDx=0;exitDy=0;entryX=0;entryY=0.5;entryDx=0;entryDy=0;" edge="1" parent="1" source="d_F_F2P5PRxiFKgZJ4JD-27" target="d_F_F2P5PRxiFKgZJ4JD-28">
          <mxGeometry relative="1" as="geometry" />
        </mxCell>
        <mxCell id="d_F_F2P5PRxiFKgZJ4JD-35" style="edgeStyle=orthogonalEdgeStyle;rounded=0;orthogonalLoop=1;jettySize=auto;html=1;exitX=0.5;exitY=1;exitDx=0;exitDy=0;" edge="1" parent="1" source="d_F_F2P5PRxiFKgZJ4JD-27" target="d_F_F2P5PRxiFKgZJ4JD-34">
          <mxGeometry relative="1" as="geometry" />
        </mxCell>
        <mxCell id="d_F_F2P5PRxiFKgZJ4JD-27" value="list empty?" style="rhombus;whiteSpace=wrap;html=1;" vertex="1" parent="1">
          <mxGeometry x="350" y="570" width="80" height="80" as="geometry" />
        </mxCell>
        <mxCell id="d_F_F2P5PRxiFKgZJ4JD-28" value="Exit for this block" style="rounded=1;whiteSpace=wrap;html=1;" vertex="1" parent="1">
          <mxGeometry x="520" y="580" width="120" height="60" as="geometry" />
        </mxCell>
        <mxCell id="d_F_F2P5PRxiFKgZJ4JD-30" value="yes" style="text;html=1;strokeColor=none;fillColor=none;align=center;verticalAlign=middle;whiteSpace=wrap;rounded=0;" vertex="1" parent="1">
          <mxGeometry x="430" y="580" width="60" height="30" as="geometry" />
        </mxCell>
        <mxCell id="d_F_F2P5PRxiFKgZJ4JD-38" style="edgeStyle=orthogonalEdgeStyle;rounded=0;orthogonalLoop=1;jettySize=auto;html=1;exitX=0.5;exitY=1;exitDx=0;exitDy=0;" edge="1" parent="1" source="d_F_F2P5PRxiFKgZJ4JD-34" target="d_F_F2P5PRxiFKgZJ4JD-36">
          <mxGeometry relative="1" as="geometry" />
        </mxCell>
        <mxCell id="d_F_F2P5PRxiFKgZJ4JD-34" value="get ilk" style="rounded=1;whiteSpace=wrap;html=1;" vertex="1" parent="1">
          <mxGeometry x="330" y="700" width="120" height="60" as="geometry" />
        </mxCell>
        <mxCell id="d_F_F2P5PRxiFKgZJ4JD-43" style="edgeStyle=orthogonalEdgeStyle;rounded=0;orthogonalLoop=1;jettySize=auto;html=1;exitX=0.5;exitY=1;exitDx=0;exitDy=0;entryX=0.5;entryY=0;entryDx=0;entryDy=0;" edge="1" parent="1" source="d_F_F2P5PRxiFKgZJ4JD-36" target="d_F_F2P5PRxiFKgZJ4JD-42">
          <mxGeometry relative="1" as="geometry" />
        </mxCell>
        <mxCell id="d_F_F2P5PRxiFKgZJ4JD-36" value="is supported?" style="rhombus;whiteSpace=wrap;html=1;" vertex="1" parent="1">
          <mxGeometry x="350" y="790" width="80" height="80" as="geometry" />
        </mxCell>
        <mxCell id="d_F_F2P5PRxiFKgZJ4JD-37" value="no" style="text;html=1;strokeColor=none;fillColor=none;align=center;verticalAlign=middle;whiteSpace=wrap;rounded=0;" vertex="1" parent="1">
          <mxGeometry x="430" y="800" width="60" height="30" as="geometry" />
        </mxCell>
        <mxCell id="d_F_F2P5PRxiFKgZJ4JD-39" style="edgeStyle=orthogonalEdgeStyle;rounded=0;orthogonalLoop=1;jettySize=auto;html=1;exitX=1;exitY=0.5;exitDx=0;exitDy=0;entryX=0;entryY=0.5;entryDx=0;entryDy=0;" edge="1" parent="1">
          <mxGeometry relative="1" as="geometry">
            <mxPoint x="430" y="829" as="sourcePoint" />
            <mxPoint x="520" y="829" as="targetPoint" />
          </mxGeometry>
        </mxCell>
        <mxCell id="d_F_F2P5PRxiFKgZJ4JD-41" value="filter opportunity out" style="rounded=1;whiteSpace=wrap;html=1;" vertex="1" parent="1">
          <mxGeometry x="520" y="800" width="120" height="60" as="geometry" />
        </mxCell>
        <mxCell id="d_F_F2P5PRxiFKgZJ4JD-45" style="edgeStyle=orthogonalEdgeStyle;rounded=0;orthogonalLoop=1;jettySize=auto;html=1;exitX=0.5;exitY=1;exitDx=0;exitDy=0;entryX=0.5;entryY=0;entryDx=0;entryDy=0;" edge="1" parent="1" source="d_F_F2P5PRxiFKgZJ4JD-42">
          <mxGeometry relative="1" as="geometry">
            <mxPoint x="390" y="1000" as="targetPoint" />
          </mxGeometry>
        </mxCell>
        <mxCell id="d_F_F2P5PRxiFKgZJ4JD-42" value="determine eligibility&lt;br&gt;(multicall)" style="rounded=1;whiteSpace=wrap;html=1;" vertex="1" parent="1">
          <mxGeometry x="330" y="910" width="120" height="60" as="geometry" />
        </mxCell>
        <mxCell id="d_F_F2P5PRxiFKgZJ4JD-47" value="yes" style="text;html=1;strokeColor=none;fillColor=none;align=center;verticalAlign=middle;whiteSpace=wrap;rounded=0;" vertex="1" parent="1">
          <mxGeometry x="400" y="870" width="60" height="30" as="geometry" />
        </mxCell>
        <mxCell id="d_F_F2P5PRxiFKgZJ4JD-50" value="update eligibility status" style="rounded=1;whiteSpace=wrap;html=1;" vertex="1" parent="1">
          <mxGeometry x="335" y="1000" width="120" height="60" as="geometry" />
        </mxCell>
      </root>
    </mxGraphModel>
  </diagram>
</mxfile>
